<svg xmlns="http://www.w3.org/2000/svg" viewBox="0 0 22 22" fill="none">
	<path fill-rule="evenodd" clip-rule="evenodd"
		d="M10.9037 8.04486V6.60004H7.66968V15.4001H10.9037V11.2284C10.9037 9.98964 11.4697 9.94092 14.8007 9.94092V6.60004H14.1863C12.7887 6.60004 11.754 7.12435 10.9037 8.04486"
		fill="#f45c5e" />
	<path fill-rule="evenodd" clip-rule="evenodd"
		d="M0 11.0001C0 4.93354 4.89552 0 10.9152 0C16.9347 0 21.8301 4.93354 21.8301 11.0001C21.8301 17.0666 16.9347 22 10.9152 22C4.89552 22 0 17.0666 0 11.0001M2.18301 11.0001C2.18301 15.8513 6.10144 19.8 10.9152 19.8C15.7289 19.8 19.6471 15.8513 19.6471 11.0001C19.6471 6.14881 15.7289 2.19997 10.9152 2.19997C6.10144 2.19997 2.18301 6.14881 2.18301 11.0001"
		fill="#f45c5e" />
</svg>